<?xml version="1.0" standalone="no"?>
<!DOCTYPE svg PUBLIC "-//W3C//DTD SVG 20010904//EN"
 "http://www.w3.org/TR/2001/REC-SVG-20010904/DTD/svg10.dtd">
<svg version="1.0" xmlns="http://www.w3.org/2000/svg"
 width="1000.000000pt" height="320.000000pt" viewBox="0 0 1000.000000 320.000000"
 preserveAspectRatio="xMidYMid meet">

<g transform="translate(0.000000,320.000000) scale(0.100000,-0.100000)"
fill="#FFFFFF" stroke="none">
<path d="M1325 2743 c-86 -18 -180 -55 -258 -101 -81 -47 -197 -160 -254 -246
-51 -76 -106 -209 -121 -293 l-9 -53 804 0 804 0 -7 38 c-81 447 -522 749
-959 655z"/>
<path d="M3410 1585 l0 -555 100 0 100 0 0 220 0 220 63 0 c76 0 59 16 262
-247 l147 -193 119 0 c66 0 119 2 119 5 0 3 -75 100 -166 217 l-165 213 46 6
c43 5 54 12 131 91 l84 85 0 147 c0 108 -4 154 -14 174 -8 15 -46 59 -86 97
l-71 70 -334 3 -335 3 0 -556z m612 338 c27 -25 28 -31 28 -118 0 -87 -1 -93
-28 -118 l-28 -27 -192 0 -192 0 0 145 0 145 192 0 192 0 28 -27z"/>
<path d="M5267 1618 c-2 -288 -8 -538 -12 -555 l-7 -33 85 0 86 0 12 55 12 55
58 -55 58 -55 152 0 152 0 69 68 68 69 0 258 0 258 -68 69 -69 68 -152 0 -152
0 -49 -46 -50 -47 0 207 0 206 -95 0 -94 0 -4 -522z m541 -188 c2 -193 1 -216
-15 -227 -10 -8 -49 -13 -101 -13 l-84 0 -74 72 -74 71 0 91 0 90 68 69 67 68
105 -3 105 -3 3 -215z"/>
<path d="M7174 2112 c-64 -47 -171 -168 -178 -203 -8 -42 -8 -607 1 -650 7
-36 146 -190 195 -215 34 -18 437 -20 471 -3 29 15 167 150 167 164 0 6 -28
39 -63 73 l-63 62 -59 -60 -59 -60 -157 0 -156 0 -42 45 -41 45 0 276 0 277
44 43 43 44 149 0 148 0 63 -62 63 -63 68 68 67 68 -91 89 -91 90 -220 0 -220
0 -39 -28z"/>
<path d="M648 1985 c-43 -24 -68 -75 -68 -137 0 -38 -5 -60 -16 -69 -36 -30
-44 -66 -44 -194 0 -128 8 -164 44 -194 11 -9 16 -31 16 -68 0 -64 18 -103 62
-135 l33 -23 812 0 c804 0 812 0 839 21 47 35 64 66 71 133 4 44 14 77 30 100
23 34 24 42 21 178 -3 128 -5 144 -24 165 -14 15 -23 42 -27 79 -7 71 -29 114
-70 139 -31 19 -56 20 -842 20 -687 -1 -814 -3 -837 -15z"/>
<path d="M4400 1493 l0 -326 68 -69 69 -68 132 0 132 0 53 50 c29 28 55 50 58
50 4 0 11 -22 18 -50 l12 -50 89 0 c49 0 89 3 89 8 0 4 -7 32 -15 62 -12 43
-15 126 -15 388 l0 332 -95 0 -95 0 0 -243 0 -242 -78 -78 -77 -77 -61 0 c-98
0 -94 -15 -94 338 l0 302 -95 0 -95 0 0 -327z"/>
<path d="M6245 1808 c-31 -17 -74 -59 -106 -102 l-29 -39 0 -239 c0 -157 4
-247 11 -261 16 -32 90 -106 121 -123 21 -11 76 -14 244 -14 l216 0 67 64 66
65 3 261 3 260 -68 70 -69 70 -219 0 c-141 0 -227 -5 -240 -12z m403 -378 c2
-193 1 -216 -15 -227 -21 -16 -285 -18 -314 -3 -18 10 -19 23 -19 224 0 117 3
216 7 220 4 3 81 5 172 4 l166 -3 3 -215z"/>
<path d="M8033 1757 c-48 -46 -66 -72 -73 -102 -5 -22 -10 -125 -10 -230 0
-104 5 -208 10 -230 7 -30 25 -56 73 -102 l65 -63 218 0 c249 0 237 -3 320 89
l49 54 0 254 0 254 -71 69 -72 70 -222 0 -222 0 -65 -63z m461 -123 c3 -9 6
-105 6 -214 0 -167 -2 -201 -16 -214 -13 -13 -42 -16 -163 -16 -101 0 -151 4
-159 12 -13 13 -18 429 -5 441 3 4 79 7 169 7 138 0 163 -2 168 -16z"/>
<path d="M8795 1798 c3 -13 9 -43 15 -68 5 -26 10 -251 10 -532 l0 -488 95 0
95 0 0 202 0 202 28 -26 c62 -57 66 -58 223 -58 l147 0 57 51 c87 80 85 74 85
346 0 263 3 250 -69 326 -59 63 -74 67 -231 67 l-141 0 -59 -56 -59 -56 -10
39 c-6 21 -11 46 -11 56 0 15 -11 17 -90 17 -89 0 -90 0 -85 -22z m563 -368
c2 -193 1 -216 -15 -227 -10 -8 -51 -13 -107 -13 l-89 0 -69 68 -68 69 0 94 0
93 68 69 67 68 105 -3 105 -3 3 -215z"/>
<path d="M722 918 c3 -183 5 -208 25 -250 30 -66 105 -143 172 -175 l56 -28
510 0 510 0 56 26 c72 34 134 96 168 168 25 54 26 64 29 259 l3 203 -93 -3
-93 -3 -5 -185 c-6 -210 -10 -224 -84 -260 -55 -26 -155 -28 -184 -2 -12 9
-44 46 -72 82 -29 36 -59 68 -68 72 -26 10 -311 9 -332 -2 -10 -5 -48 -46 -85
-91 l-67 -81 -78 4 c-87 3 -117 18 -157 78 -22 31 -23 43 -23 211 l0 179 -96
0 -95 0 3 -202z"/>
<path d="M1165 1004 l-37 -45 28 -30 c34 -35 47 -36 72 -4 l20 25 240 0 241 0
22 -31 22 -31 35 35 35 36 -37 45 -37 46 -283 0 -284 0 -37 -46z"/>
</g>
</svg>
