<?xml version="1.0" encoding="utf-8"?>
<!-- Generator: Adobe Illustrator 24.0.1, SVG Export Plug-In . SVG Version: 6.00 Build 0)  -->
<svg version="1.1" id="Layer_1" xmlns="http://www.w3.org/2000/svg" xmlns:xlink="http://www.w3.org/1999/xlink" x="0px" y="0px"
	 viewBox="0 0 200 200" style="enable-background:new 0 0 200 200;" xml:space="preserve">
<style type="text/css">
	.st0{fill:#FFFFFF;}
</style>
<g transform="translate(0.000000,2000.000000) scale(0.100000,-0.100000)">
	<path class="st0" d="M604.5,19370.4c-14.8-0.7-28.9-2-29.6-2.8c-0.2-0.2,1.7-6.8,4.3-14.6l4.6-14.3l3.5,0.2
		c1.8,0,12.9,0.3,24.5,0.8c18.7,0.5,21,0.8,20.6,2c-6.8,21.4-9.8,29.2-11.4,29.3C620.1,19371.1,612.7,19370.8,604.5,19370.4z"/>
	<path class="st0" d="M815.8,19329.5c-0.3-6.3-0.7-13.8-0.8-16.6l-0.1-5.1l11.7-4.1c6.4-2.3,17.3-6.3,24.1-9l12.3-4.8l0.4,2.3
		c0.3,1.2,0.7,8.2,1,15.3c0.3,7.2,0.8,13.7,1,14.4c0.5,2-10.3,6.8-30.8,13.5c-9.2,3-17.1,5.6-17.5,5.6
		C816.8,19340.9,816.1,19335.7,815.8,19329.5z"/>
	<path class="st0" d="M390.2,19316.9c-19.5-10.2-29.6-16.3-29.3-17.7c0.4-1.7,21.4-33.4,22.3-33.7c0.3-0.1,5.7,2.8,12,6.5
		c6.2,3.7,14.7,8.5,18.8,10.7c4.2,2.2,7.6,4.2,7.6,4.5s-5,8.3-11.1,17.6l-11,17L390.2,19316.9z"/>
	<path class="st0" d="M593.3,19318.7c-7.6-0.6-16.8-1.6-20.4-2.1c-123.5-17.7-264.8-112.2-370.1-247.4
		c-73.9-94.9-135.5-226.1-163.3-347.3c-5-22.2-10.1-49.6-10.1-54.8c0-1.7,0.3-1.7,200-1.7c176.1,0,200,0.2,200,1.3
		c0,0.7-1,7.2-2.2,14.5c-8.7,53-10.3,118.9-4.3,172.4c9,79.6,33.4,148.2,71.9,202.5c19.2,27,46.2,54.8,72.2,74.2
		c19.9,14.8,35.6,24.2,58.5,35c57,26.8,104.1,37.7,161.6,37.6c55.5-0.1,108.9-11.1,168.8-35c48.9-19.5,104-50.4,155.4-87.2
		c7.1-5.1,13.2-9.5,13.7-9.7c0.8-0.4,17.7,12.5,17.7,13.7c0,1-15.6,15.3-30.9,28.4c-33.9,29.1-73.1,58.4-110.9,82.9
		c-114.7,74.2-227.1,115.5-334.7,123.4C649.7,19320.4,610.2,19320.2,593.3,19318.7z"/>
	<path class="st0" d="M815,19174.3c-0.3-4.3-0.7-11.2-1-15.6l-0.5-7.9l3.7-0.4c2.1-0.3,8.9-1,15-1.5s15.5-1.7,20.8-2.7
		c5.2-1,9.7-1.5,10-1.2c0.8,0.8,2.4,30.1,1.8,30.5c-2,1.2-40.3,6.4-47.1,6.4C815.7,19181.8,815.5,19181.6,815,19174.3z"/>
	<path class="st0" d="M681.9,19165c-17.2-5.8-29.1-10.8-29.1-12.1c0-1,10.4-33,11-33.6c0.2-0.2,5.7,2.1,12.3,5
		c6.7,3,16.3,6.9,21.6,8.7c5.9,2.2,9.5,3.8,9.4,4.6c-0.2,1.9-10.3,32-10.8,32C696,19169.7,689.6,19167.6,681.9,19165z"/>
	<path class="st0" d="M186.7,19160.2c-4-3.7-12.3-12.1-18.3-18.5l-11.1-11.8l16.8-14.3c9.1-7.9,17.9-15.4,19.5-16.7l2.7-2.3l4.7,5.8
		c5.7,7.1,14.7,17.7,23.1,27l6.3,7l-17.4,15.3c-9.6,8.4-17.7,15.3-18.2,15.3S190.7,19164,186.7,19160.2z"/>
	<path class="st0" d="M547.9,19083.4c-4.9-5-11.7-12.4-15.4-16.7l-6.5-7.7l12.1-18.2l12.2-18.2l5.2,7c2.9,3.9,9.5,11.9,14.8,17.9
		c8.8,9.9,9.5,11,8.5,12.8c-2,3.7-21,31.9-21.6,31.9C556.9,19092.3,552.7,19088.3,547.9,19083.4z"/>
	<path class="st0" d="M640.2,19026c-0.3-0.6-0.3-81.9-0.3-180.7l0.3-179.5l48.4-0.3l48.5-0.2l0.2,43.6l0.3,43.6l42.2-43.6l42.2-43.6
		h71.6h71.6l-20.9,21.6c-11.5,11.8-36.8,37.3-56.2,56.7s-35.3,35.5-35.3,35.7c0,0.3,1.8,0.9,4.2,1.2c5.8,0.8,18.2,5,25.6,8.8
		c9.8,4.9,17.9,11,26,19.2c16.4,16.9,25.4,35.8,30.5,64.6c1.8,10.3,1.6,47-0.4,56.9c-2.5,12.5-5.7,21.9-10.6,32.2
		c-13.7,27.7-38.5,48.3-71.4,59.2c-17.7,5.8-13.1,5.6-119.5,5.6C660.6,19027.1,640.4,19026.8,640.2,19026z M817.8,18935
		c4.6-2.3,12.1-10.6,14.6-16.1c3.5-7.7,5-16.2,4.4-26.6c-0.7-15.7-6.1-27.6-16.1-35l-4.8-3.7h-39.2h-39.2l-0.3,41.6l-0.2,41.5h38.7
		C812.1,18936.6,814.8,18936.6,817.8,18935z"/>
	<path class="st0" d="M1068.8,19023.5c-35.2-4.5-62.9-28.4-75.3-64.9c-5.3-15.7-5.1-9.5-5.1-157.6v-135.5h49.1h49.1v31.7v31.7h46.5
		h46.5l0.2-31.5l0.3-31.6l47.6-0.3l47.6-0.2l-0.2,141l-0.3,141.1l-2.3,8.7c-9,33.2-33.2,55.6-70.4,65.4l-9,2.3l-59.1,0.2
		C1101.5,19024.2,1072.2,19023.9,1068.8,19023.5z M1164,18937.1c6.3-2,13.1-8.8,14.6-14.5c0.7-2.9,1-17.3,1-47.6v-43.6h-46.5h-46.5
		v45.2c0,36.2,0.3,45.8,1.2,48.1c2.8,6.9,11.7,12.3,22.1,13.7c3.2,0.4,15.6,0.6,27.6,0.5
		C1155.2,18938.6,1160.1,18938.4,1164,18937.1z"/>
	<path class="st0" d="M1320.7,18845.2l0.3-179.4l51.1-0.3l51-0.2v179.5v179.5h-51.3h-51.3L1320.7,18845.2z"/>
	<path class="st0" d="M1465.7,18844.9v-179.5l120.2,0.2l120.2,0.3l0.3,46.3l0.2,46.3h-69.1h-69.1v133v133H1517h-51.3V18844.9z"/>
	<path class="st0" d="M1820.9,19023.9c-33-4.1-63.1-25.8-76.9-55.3c-7-14.8-8.6-25.8-8.6-55.8c0-23.1,0.6-30.7,3.5-41.6
		c8.7-33.6,39.3-60.5,76.3-67c5.7-1,16.3-1.3,50.2-1.3h43v-22.6v-22.6h-83.9h-83.9v-46.1v-46.1h82.4c47.7,0,85.7,0.3,90.4,0.9
		c33.4,3.6,62.5,22.9,76.5,50.9c4,8.1,7.3,18.1,9,27.4c1.7,9.1,1.7,58.7,0,67.8c-7.4,41-39.6,71-81.8,76.5
		c-3.6,0.4-26.2,0.9-50.2,0.9H1823v21.3v21.3h82.2h82.2v46.1v46.1l-81.9-0.1C1860.3,19024.3,1822.4,19024,1820.9,19023.9z"/>
	<path class="st0" d="M464.5,18941.7c-1.7-5.4-5.1-17.9-7.6-27.8l-4.4-18l2.5-2c1.4-1.1,10.5-8.3,20.3-16.1l17.8-14.2l0.7,4.6
		c3.3,22,4.5,29.6,6.8,40.1c1.5,6.6,2.9,12.5,3,13.1c0.3,0.6-6.3,6.4-15.9,14c-9,7.1-17.1,13.7-18.3,14.5l-1.9,1.6L464.5,18941.7z"
		/>
	<path class="st0" d="M17.7,18927.8c-0.6-1.6-4.2-9.9-7.9-18.5c-8.5-20-15.2-36.7-15.2-38.1c0-0.9,54.7-21.5,57-21.5
		c0.4,0,2.7,4.8,5,10.7c2.3,5.8,7.8,19.2,12.3,29.7c4.4,10.5,7.8,19.4,7.6,19.7c-0.7,0.7-55.4,20.7-56.7,20.7
		C19.4,18930.6,18.4,18929.3,17.7,18927.8z"/>
	<path class="st0" d="M445.3,18758.2c1.3-19.7,3.7-42.8,5.4-52.4c0.4-2.6,0.9-2.8,30.2-13.3c16.3-5.8,30-10.6,30.3-10.6
		s-0.3,4-1.5,8.9c-2.2,9.7-7.4,37.7-9.2,49.3l-1.1,7.2l-23.9,8.6c-13.1,4.8-25.4,9.2-27.3,9.9l-3.3,1.4L445.3,18758.2z"/>
</g>
</svg>
