<?xml version="1.0" standalone="no"?>
<!DOCTYPE svg PUBLIC "-//W3C//DTD SVG 20010904//EN"
 "http://www.w3.org/TR/2001/REC-SVG-20010904/DTD/svg10.dtd">
<svg version="1.0" xmlns="http://www.w3.org/2000/svg"
 width="400px" height="400px" viewBox="0 0 218.000000 185.000000"
 preserveAspectRatio="xMidYMid meet">

<g transform="translate(0.000000,185.000000) scale(0.100000,-0.100000)"
fill="#FFFFFF" stroke="none">
<path d="M1220 1073 c-32 -12 -50 -37 -50 -68 0 -38 13 -51 84 -85 44 -22 51
-29 51 -55 0 -23 -7 -33 -28 -43 -25 -12 -33 -11 -68 6 -41 21 -63 12 -36 -15
23 -24 102 -29 132 -9 63 41 49 105 -33 144 -64 31 -82 53 -66 80 13 21 65 27
94 12 27 -15 39 -5 19 16 -17 16 -75 27 -99 17z"/>
<path d="M930 931 c0 -119 2 -141 15 -141 12 0 15 13 15 60 0 59 0 60 28 60
24 0 33 -9 62 -60 23 -40 40 -60 53 -60 20 0 18 5 -42 99 -13 21 -13 24 2 32
32 19 47 41 47 72 -1 57 -21 71 -105 75 l-75 4 0 -141z m137 93 c18 -25 16
-41 -7 -64 -13 -13 -33 -20 -60 -20 l-40 0 0 56 0 57 47 -6 c29 -3 52 -12 60
-23z"/>
<path d="M361 1006 l-43 -44 17 -32 c9 -18 47 -68 83 -111 l67 -80 30 34 c69
78 115 137 126 160 10 23 8 30 -26 71 l-37 46 -87 0 -87 0 -43 -44z"/>
<path d="M1410 850 c0 -127 2 -150 15 -150 12 0 15 13 15 55 0 52 1 55 19 45
51 -27 114 10 123 72 7 43 -7 100 -28 115 -22 16 -68 17 -97 2 -16 -9 -22 -9
-25 0 -2 6 -8 11 -13 11 -5 0 -9 -66 -9 -150z m124 111 c27 -30 18 -109 -15
-133 -20 -15 -30 -17 -52 -9 -25 10 -27 14 -27 74 0 56 3 65 23 75 33 16 52
14 71 -7z"/>
<path d="M1677 989 c-28 -16 -49 -74 -41 -114 9 -47 48 -85 90 -85 42 0 64 9
64 25 0 11 -6 11 -29 2 -38 -14 -76 4 -90 44 l-10 29 75 0 c40 0 74 3 74 8 0
28 -24 83 -40 92 -24 13 -70 12 -93 -1z m87 -31 c28 -39 21 -48 -39 -48 -60 0
-71 15 -38 52 22 25 59 23 77 -4z"/>
<path d="M1876 970 c-20 -24 -26 -43 -26 -77 0 -78 75 -128 141 -92 28 15 14
30 -17 19 -36 -14 -42 -13 -69 15 -34 33 -34 87 1 121 21 22 31 25 61 19 27
-5 34 -3 31 7 -3 7 -24 14 -50 16 -40 3 -48 0 -72 -28z"/>
</g>
</svg>
