<?xml version="1.0" encoding="utf-8"?>
<!-- Generator: Adobe Illustrator 24.0.1, SVG Export Plug-In . SVG Version: 6.00 Build 0)  -->
<svg version="1.1" id="Layer_1" xmlns="http://www.w3.org/2000/svg" xmlns:xlink="http://www.w3.org/1999/xlink" x="0px" y="0px"
	 viewBox="0 0 200 200" style="enable-background:new 0 0 200 200;" xml:space="preserve">
<style type="text/css">
	.st0{fill:#FFFFFF;}
</style>
<g transform="translate(0.000000,300.000000) scale(0.100000,-0.100000)">
	<path class="st0" d="M1017.1,2475c-86.7-13.3-203.9-62.1-289.5-120.5c-77.4-52.5-137.8-115.9-159.4-168c-10-23.6-10-28.2-2-41.5
		c7.6-12.9,14.6-24.9,32.9-58.8c6.6-12.3,13.6-24.2,15.3-26.6c1.7-2.3,2.3-5.3,1.3-7c-4-6.3,29.5-12.3,67.7-12
		c113.5,1.3,286.2,71.1,398.1,160.7c57.1,45.8,100.9,96,120.5,138.1c9.6,20.6,10.6,26.2,11,53.1c0,27.9-0.7,31.2-9.6,43.8
		c-21.2,30.5-58.4,44.2-120.5,43.5C1063.2,2479.6,1033.7,2477.7,1017.1,2475z"/>
	<path class="st0" d="M1261.1,2459.7c0-2.3,2.3-16.9,5-32.5c6-34.9,6-36.5,0.3-36.5c-10.6,0-7.6-7.6,15.6-43.8
		c13.6-20.6,27.2-42.8,30.5-49.1c5.6-11.3,5.6-11.6-0.3-6.3c-4.6,4.3-16.9,6-47.5,8c-22.9,1.3-44.8,3.7-48.8,5.3
		c-6.6,2.3-10-0.3-28.9-26.2c-11.6-15.9-32.5-45.2-46.1-64.7l-24.9-35.9l-4-51.8c-2.3-28.6-5.3-54.8-7-58.8c-2-5-3-5.3-3-1.7
		c-0.3,3.7-5.3,6.6-14.3,9.3c-30.2,8-98.3,23.6-103.3,23.6c-2.7,0-5.6,2-6.3,4c-1.3,3.3-5.3,2.3-16.3-3c-8-4-30.9-14.6-51.1-23.6
		c-19.9-9.3-56.1-26.2-80.3-37.8l-43.8-21.2l-28.6-39.8c-30.9-42.5-36.5-49.8-33.2-40.5c2,5,0.3,6-11.6,6c-7.3,0-19.9,1.3-27.6,3
		s-31.9,5.6-53.8,8.6c-21.9,3-46.8,6.6-55.4,8c-10.6,1.7-16.3,1.3-16.9-1c-0.7-2-3.3,7.6-5.3,21.2c-2.3,13.6-6.3,32.5-9,42.2
		c-2.7,9.3-4.6,27.2-5,39.8c-0.3,30.2-1.7,32.5-19.3,32.5h-14.6l-26.2-69.7c-36.5-97.6-40.5-112.6-40.5-154.4
		c-0.3-77.4,33.9-123.2,117.5-156c9.3-3.7,128.5-32.9,264.9-65.1c136.5-31.9,285.9-67.1,332-78c46.5-10.6,87-19.6,90.6-19.6
		c3.3,0,6.3,2.3,6.3,5s25.2,68.1,56.1,145.1c115.2,289.2,195.9,496.4,201.2,517.3c8,29.5,8,76.4,0.3,98.9
		c-12.6,36.9-45.2,73.4-83.3,92.6c-7.3,4-43.2,15.9-79.7,26.9C1262.4,2464.7,1261.1,2465,1261.1,2459.7z"/>
</g>
</svg>
